<svg width="20" height="18" viewBox="0 0 20 18" fill="none" xmlns="http://www.w3.org/2000/svg">
<path d="M3.76722 3.9455L1.16155 1.33983L2.34006 0.161316L18.8392 16.6604L17.6607 17.839L14.9024 15.0807C13.4847 15.9796 11.8033 16.5002 10.0004 16.5002C5.50693 16.5002 1.76862 13.267 0.984863 9.00019C1.34876 7.01904 2.3496 5.26077 3.76722 3.9455ZM12.2982 12.4765L11.0782 11.2565C10.7518 11.4127 10.3863 11.5002 10.0004 11.5002C8.61966 11.5002 7.50038 10.3809 7.50038 9.00019C7.50038 8.61419 7.58785 8.24869 7.74402 7.92227L6.52405 6.70233C6.08778 7.36102 5.83371 8.15094 5.83371 9.00019C5.83371 11.3014 7.6992 13.1669 10.0004 13.1669C10.8496 13.1669 11.6395 12.9128 12.2982 12.4765ZM6.64555 2.13348C7.68455 1.72468 8.81625 1.50016 10.0004 1.50016C14.4938 1.50016 18.2322 4.73329 19.0159 9.00019C18.7557 10.4165 18.17 11.719 17.3392 12.8271L14.1227 9.61061C14.1519 9.41136 14.1671 9.20752 14.1671 9.00019C14.1671 6.69897 12.3016 4.83349 10.0004 4.83349C9.793 4.83349 9.58916 4.84863 9.38991 4.87788L6.64555 2.13348Z" fill="white"/>
</svg>
