<svg width="26" height="22" viewBox="0 0 26 22" fill="currentColor" xmlns="http://www.w3.org/2000/svg">
<path d="M0.378662 10.6863C1.47592 4.71267 6.70956 0.186279 13.0004 0.186279C19.2912 0.186279 24.5249 4.71267 25.6221 10.6863C24.5249 16.6598 19.2912 21.1863 13.0004 21.1863C6.70956 21.1863 1.47592 16.6598 0.378662 10.6863ZM13.0004 16.5196C16.2221 16.5196 18.8338 13.9079 18.8338 10.6863C18.8338 7.46462 16.2221 4.85295 13.0004 4.85295C9.77873 4.85295 7.16705 7.46462 7.16705 10.6863C7.16705 13.9079 9.77873 16.5196 13.0004 16.5196ZM13.0004 14.1863C11.0674 14.1863 9.50039 12.6193 9.50039 10.6863C9.50039 8.75323 11.0674 7.18628 13.0004 7.18628C14.9334 7.18628 16.5004 8.75323 16.5004 10.6863C16.5004 12.6193 14.9334 14.1863 13.0004 14.1863Z" fill="currentColor"/>
</svg>
